<svg xmlns="http://www.w3.org/2000/svg" xmlns:xlink="http://www.w3.org/1999/xlink" width="69" height="72" viewBox="0 0 69 72">
    <defs>
        <path id="a" d="M.449.498h10.289v10.334H.449z"/>
    </defs>
    <g fill="none" fill-rule="evenodd">
        <path fill="#D6D3E9" d="M7 70h13V56H7zM28 70h13V56H28zM55 70h13V56H55z"/>
        <g transform="translate(27.464)">
            <mask id="b" fill="#fff">
                <use xlink:href="#a"/>
            </mask>
            <path fill="#D6D3E9" d="M10.738 5.665c0 2.854-2.303 5.167-5.145 5.167C2.753 10.832.45 8.52.45 5.665.449 2.811 2.752.498 5.593.498c2.842 0 5.145 2.313 5.145 5.167" mask="url(#b)"/>
        </g>
        <path fill="#968CD6" fill-opacity=".7" d="M12.745 53.69c-2.303 0-4.169-1.874-4.169-4.187 0-2.312 1.866-4.187 4.169-4.187 2.302 0 4.169 1.875 4.169 4.187 0 2.313-1.867 4.188-4.169 4.188z"/>
        <path fill="#968CD6" d="M40.562 49.503c0 2.313-1.867 4.188-4.169 4.188-2.303 0-4.169-1.875-4.169-4.188 0-2.312 1.867-4.187 4.169-4.187 2.302 0 4.169 1.875 4.169 4.187M64.21 49.503c0 2.313-1.867 4.188-4.169 4.188-2.302 0-4.169-1.875-4.169-4.188 0-2.312 1.867-4.187 4.169-4.187 2.302 0 4.169 1.875 4.169 4.187" opacity=".7"/>
        <path fill="#D6D3E9" d="M33.057 26.442h10.289V13.847H33.057z"/>
        <path stroke="#968CD6" stroke-linejoin="round" stroke-width="3" d="M43.346 26.61v-9.863c-.001-1.257-.982-2.712-2.23-3.094a22.937 22.937 0 0 0-13.18 0c-1.248.382-2.23 1.84-2.231 3.094v9.862h17.641z"/>
        <path stroke="#968CD6" stroke-linejoin="round" stroke-width="3" d="M39.007 8.03c0 2.487-2.007 4.502-4.481 4.502-2.476 0-4.483-2.015-4.483-4.502 0-2.486 2.007-4.5 4.483-4.5 2.474 0 4.481 2.014 4.481 4.5zM29.758 17.513v8.929M39.293 17.513v8.929"/>
        <path stroke="#968CD6" stroke-linejoin="round" stroke-width="3" d="M39.007 8.03c0 2.487-2.007 4.502-4.481 4.502-2.476 0-4.483-2.015-4.483-4.502 0-2.486 2.007-4.5 4.483-4.5 2.474 0 4.481 2.014 4.481 4.5zM29.758 17.513v8.929M39.293 17.513v8.929M43.346 69.519v-9.864c-.001-1.258-.983-2.711-2.23-3.094a22.958 22.958 0 0 0-13.18 0c-1.248.383-2.23 1.84-2.231 3.094v9.864h17.641z"/>
        <path stroke="#968CD6" stroke-linejoin="round" stroke-width="3" d="M39.007 50.939c0 2.486-2.006 4.502-4.481 4.502s-4.482-2.016-4.482-4.502c0-2.486 2.007-4.5 4.482-4.5s4.48 2.014 4.48 4.5zM29.757 60.422v8.928M39.293 60.422v8.928"/>
        <path stroke="#968CD6" stroke-linejoin="round" stroke-width="3" d="M39.007 50.939c0 2.486-2.006 4.502-4.481 4.502s-4.482-2.016-4.482-4.502c0-2.486 2.007-4.5 4.482-4.5s4.48 2.014 4.48 4.5zM29.757 60.422v8.928M39.293 60.422v8.928M19.976 69.519v-9.864c-.001-1.258-.983-2.711-2.23-3.094a22.958 22.958 0 0 0-13.18 0c-1.248.383-2.23 1.84-2.23 3.094v9.864h17.64z"/>
        <path stroke="#968CD6" stroke-linejoin="round" stroke-width="3" d="M15.637 50.939c0 2.486-2.006 4.502-4.481 4.502s-4.482-2.016-4.482-4.502c0-2.486 2.007-4.5 4.482-4.5s4.481 2.014 4.481 4.5zM6.388 60.422v8.928M15.924 60.422v8.928"/>
        <path stroke="#968CD6" stroke-linejoin="round" stroke-width="3" d="M15.637 50.939c0 1.658-1.494 3.158-4.481 4.502-2.988-1.344-4.482-2.844-4.482-4.502 0-2.486 2.007-4.5 4.482-4.5s4.481 2.014 4.481 4.5zM6.388 60.422v8.928M15.924 60.422v8.928M66.716 69.519v-9.864c-.001-1.258-.983-2.711-2.23-3.094a22.958 22.958 0 0 0-13.181 0c-1.247.383-2.229 1.84-2.23 3.094v9.864h17.641z"/>
        <path stroke="#968CD6" stroke-linejoin="round" stroke-width="3" d="M62.377 50.939c0 2.486-2.007 4.502-4.481 4.502-2.476 0-4.483-2.016-4.483-4.502 0-2.486 2.007-4.5 4.483-4.5 2.474 0 4.48 2.014 4.48 4.5zM53.127 60.422v8.928M62.663 60.422v8.928"/>
        <path stroke="#968CD6" stroke-linejoin="round" stroke-width="3" d="M62.377 50.939c0 2.486-2.007 4.502-4.481 4.502-2.476 0-4.483-2.016-4.483-4.502 0-2.486 2.007-4.5 4.483-4.5 2.474 0 4.48 2.014 4.48 4.5zM53.127 60.422v8.928M62.663 60.422v8.928M10.653 41.975v-4.542c0-1.488 1.2-2.692 2.68-2.692h42.385c1.48 0 2.68 1.204 2.68 2.692v4.542M34.526 41.808V29.523"/>
        <path fill="#968CD6" fill-opacity=".7" d="M29.757 28.304h9.536v-14.79h-9.536z"/>
    </g>
</svg>
