<svg xmlns="http://www.w3.org/2000/svg" width="35" height="31" fill="none" viewBox="0 0 35 31">
    <path fill="#fff" d="M32.378 31H2.622c-.955 0-1.808-.566-2.278-1.517-.496-.999-.452-2.212.112-3.16L15.334 1.31C15.82.49 16.63 0 17.5 0s1.68.49 2.166 1.31l14.879 25.013c.563.95.608 2.161.111 3.16-.47.949-1.323 1.517-2.278 1.517zM17.5 1.274c-.48 0-.913.268-1.19.732L1.432 27.019c-.331.558-.357 1.27-.066 1.858.264.533.732.849 1.256.849h29.756c.522 0 .99-.319 1.256-.85.291-.588.268-1.299-.065-1.857L18.69 2.006c-.277-.464-.71-.732-1.19-.732z"/>
    <path fill="#fff" d="M18.238 21.463H16.76c-.378 0-.734-.158-1.004-.449-.27-.29-.424-.675-.431-1.088L15.1 8.472c-.01-.426.137-.828.41-1.134.272-.306.638-.472 1.027-.472h1.931c.39 0 .755.169 1.027.472.273.306.417.706.41 1.134l-.226 11.454c-.009.413-.16.8-.43 1.088-.27.288-.634.449-1.011.449zM16.532 8.14c-.1 0-.165.056-.193.089-.03.033-.08.104-.077.214l.226 11.454c.002.16.126.29.273.29h1.477c.146 0 .267-.13.272-.29l.226-11.454c.002-.11-.047-.18-.077-.214-.03-.033-.095-.09-.193-.09h-1.934zM18.228 27.375h-1.46c-.923 0-1.673-.82-1.673-1.83v-1.182c0-1.01.75-1.83 1.672-1.83h1.461c.923 0 1.673.82 1.673 1.83v1.183c0 1.009-.75 1.83-1.673 1.83zm-1.46-3.568c-.28 0-.508.25-.508.556v1.183c0 .305.228.555.507.555h1.461c.28 0 .508-.25.508-.555v-1.183c0-.306-.228-.556-.508-.556h-1.46z"/>
</svg>
