<svg xmlns="http://www.w3.org/2000/svg" width="23" height="22" fill="none" viewBox="0 0 23 22">
    <path fill="#fff" d="M22.002 11.776c-.046.316-.087.628-.138.945-.674 4.407-4.072 8.043-8.424 9.006-4.476.99-8.947-.761-11.552-4.54-.995-1.449-1.614-3.059-1.807-4.81-.413-3.738.748-6.916 3.48-9.489A10.362 10.362 0 0 1 9.607.086c3.756-.43 6.943.753 9.525 3.5 1.54 1.641 2.435 3.618 2.77 5.847.041.26.069.527.105.788-.004.518-.004 1.037-.004 1.555zM11.234 20.53a9.553 9.553 0 0 0 9.26-10.387c-.432-4.966-4.857-9.135-10.393-8.64-4.939.44-9.07 4.843-8.603 10.332.418 4.875 4.572 8.805 9.736 8.695z"/>
    <path fill="#fff" d="M11.72 10.272h3.453c.152 0 .308.009.454.05a.698.698 0 0 1 .505.688.716.716 0 0 1-.532.67 1.374 1.374 0 0 1-.362.04c-1.078.005-2.156.005-3.233.005h-.285v3.536c-.004.523-.303.88-.734.876-.435-.005-.72-.358-.72-.885v-3.256-.27H6.626c-.454-.024-.775-.335-.766-.743.01-.395.34-.702.785-.702.77-.005 1.54 0 2.315 0h1.312V10 6.7c0-.467.289-.807.683-.825.44-.018.762.316.766.812.005.87 0 1.742 0 2.614v.972z"/>
</svg>
