<svg width="28" height="22" viewBox="0 0 28 22" fill="none" xmlns="http://www.w3.org/2000/svg">
<g clip-path="url(#clip0)">
<path d="M27.9884 9.13333C27.9348 8.34181 27.5253 7.89451 26.7374 7.86655C25.991 7.84034 25.2376 7.8054 24.4964 7.87529C23.7741 7.94343 23.356 7.66212 22.9499 7.07678C21.4968 4.98354 19.9953 2.92525 18.4938 0.866951C17.8597 -0.00319426 17.1962 -0.1919 16.4255 0.209974C15.496 0.69397 15.3007 1.66196 15.9884 2.65092C17.0303 4.14834 18.1119 5.6178 19.1659 7.10649C19.318 7.3214 19.6014 7.49263 19.5184 7.82811C15.8294 7.82811 12.1577 7.82811 8.3547 7.82811C8.57068 7.50836 8.69509 7.31616 8.82986 7.1292C9.89077 5.64576 10.9655 4.17106 12.0109 2.67713C12.7037 1.68643 12.569 0.807543 11.6947 0.271129C10.8998 -0.216362 10.1966 -0.0538654 9.54347 0.840742C7.97284 2.99164 6.41777 5.15477 4.87824 7.32839C4.59833 7.72502 4.30114 7.89451 3.81388 7.87354C2.9534 7.8351 2.08774 7.8386 1.22554 7.87354C0.529213 7.9015 0.121438 8.30512 0.0333167 9.01452C-0.0997287 10.0821 0.181913 10.8334 0.917982 10.9243C1.59185 11.0082 1.65232 11.3733 1.71971 11.8835C2.06701 14.4748 2.42641 17.0642 2.78753 19.6537C3.00351 21.2053 3.90373 21.9933 5.4899 21.9951C11.1556 22.0003 16.8212 22.0003 22.4869 21.9951C24.156 21.9933 25.0113 21.1983 25.2394 19.5122C25.5884 16.921 25.953 14.3332 26.3141 11.7438C26.3694 11.3454 26.397 11.0169 26.9759 10.9505C27.7897 10.8579 28.0644 10.2533 27.9884 9.13333ZM9.71798 17.5308C9.69898 18.3502 9.23418 18.8797 8.55686 18.8447C7.79142 18.8045 7.42684 18.331 7.42165 17.5884C7.40783 15.8202 7.40956 14.0519 7.41993 12.2854C7.42511 11.5446 7.77587 11.0641 8.54304 11.0169C9.22381 10.975 9.69898 11.5009 9.71798 12.3151C9.73872 13.1835 9.72317 14.0537 9.72317 14.9238C9.72317 15.7922 9.73872 16.6606 9.71798 17.5308ZM15.1832 17.5255C15.1556 18.3415 14.6683 18.8552 13.9962 18.8482C13.3275 18.8412 12.8402 18.3205 12.8299 17.5063C12.8091 15.7975 12.8091 14.0869 12.8281 12.3763C12.8368 11.5551 13.3068 11.0291 13.972 11.0099C14.6735 10.9889 15.1625 11.5254 15.1849 12.3955C15.2074 13.2639 15.1901 14.134 15.1901 15.0042C15.1901 15.8446 15.2126 16.6851 15.1832 17.5255ZM20.5983 14.9623C20.5983 15.8324 20.5983 16.7008 20.5966 17.5709C20.5949 18.3293 20.2199 18.7783 19.4752 18.8412C18.791 18.8971 18.3072 18.3747 18.2968 17.5465C18.2761 15.8079 18.2761 14.0694 18.2968 12.3291C18.3055 11.4957 18.7737 10.9977 19.4579 11.0064C20.1301 11.0152 20.5776 11.5254 20.5949 12.3536C20.6122 13.2237 20.5983 14.0939 20.5983 14.9623Z" fill="#25A5DE"/>
</g>
<defs>
<clipPath id="clip0">
<rect width="28" height="22" fill="white"/>
</clipPath>
</defs>
</svg>
