<svg width="26" height="16" viewBox="0 0 26 16" fill="none" xmlns="http://www.w3.org/2000/svg">
<g clip-path="url(#clip0)">
<path d="M19.7357 5.49344C19.0991 5.64588 18.7928 5.47058 18.494 4.92562C17.9799 3.98814 17.4082 3.08306 16.8439 2.17607C15.205 -0.453443 15.9642 0.0648371 12.9053 0.00576837C12.8441 0.00386293 12.781 0.00767382 12.7197 0.00576837C12.085 -0.0228133 11.749 0.242043 11.7156 0.93753C11.6822 1.65398 11.9699 2.01792 12.6548 2.05221C12.9944 2.06936 13.3378 2.08842 13.6738 2.05221C14.3754 1.976 14.767 2.27515 14.8913 3.03161C13.6218 3.03161 12.3875 3.01637 11.1551 3.03923C10.6799 3.04876 10.3996 2.96111 10.4052 2.38185C10.4089 1.94741 10.1361 1.69971 9.68132 1.70161C8.53983 1.70733 7.39649 1.69208 6.255 1.71304C5.64249 1.72448 5.24343 2.06174 5.26571 2.71531C5.28612 3.31743 5.68704 3.60896 6.25314 3.62611C6.83781 3.64516 7.42433 3.62992 8.18718 3.62992C7.87721 4.1844 7.63221 4.57883 7.4299 4.99612C7.19232 5.48773 6.88792 5.64588 6.33295 5.49916C4.15948 4.92562 2.39806 5.79641 1.10437 7.48272C-0.22273 9.21477 -0.36008 11.2021 0.716448 13.18C1.73915 15.0607 3.31496 16.0629 5.41419 15.96C7.47259 15.8571 9.07624 14.8739 9.89663 12.8637C10.1862 12.153 10.5593 11.8652 11.2757 11.9891C12.4654 12.1949 13.2097 11.6995 13.7907 10.5962C14.6371 8.99183 15.6542 7.48272 16.6156 5.90502C17.1539 6.36423 17.3247 6.68625 16.8198 7.31886C15.6115 8.83559 15.2533 10.5581 15.9716 12.4655C16.8588 14.8225 19.3534 16.3754 21.6289 15.92C24.2423 15.3979 26.0167 13.2353 26.0019 10.5905C25.9814 7.2998 22.8725 4.7446 19.7357 5.49344ZM4.28755 13.7974C2.64863 13.2886 1.77813 11.7242 2.07881 9.92931C2.30154 8.59741 3.7066 7.39317 5.04669 7.40079C5.27684 7.4027 5.57938 7.28456 5.71302 7.56085C5.82067 7.78188 5.59794 7.96861 5.49215 8.14772C5.06339 8.87941 4.58452 9.58062 4.18547 10.3275C3.69917 11.2403 4.12236 11.9586 5.14692 11.9853C6.10094 12.0101 7.05497 11.991 8.08881 11.991C7.40948 13.8012 5.61836 14.2108 4.28755 13.7974ZM12.1314 9.49106C11.7935 10.0779 11.3017 9.91407 10.8321 9.92931C10.3068 9.94837 10.3235 9.52155 10.2122 9.15761C10.0006 8.46212 9.69989 7.80665 9.23215 7.24073C9.01314 6.97588 8.53055 6.75103 8.8962 6.31278C9.29155 5.84023 9.32125 4.97707 10.1713 4.97135C11.6748 4.96373 13.18 4.96945 14.8561 4.96945C13.8742 6.58907 12.974 8.02387 12.1314 9.49106ZM23.5555 12.3759C22.8409 13.6221 21.6846 14.0413 20.3037 13.9098C18.1599 13.7059 16.8235 10.7887 18.03 8.95563C18.3177 8.51929 18.4736 8.65648 18.674 8.98993C19.1084 9.71971 19.5445 10.4476 19.9789 11.1774C20.2981 11.7128 20.6768 11.951 21.2744 11.5566C21.8721 11.1621 22.067 10.7391 21.6252 10.0722C21.0925 9.26622 20.6211 8.4183 20.068 7.49797C21.6345 7.1607 22.7481 7.67898 23.5073 8.86226C24.2274 9.98266 24.2144 11.2307 23.5555 12.3759Z" fill="#617E94"/>
<path d="M6.81543 9.95981C7.11426 9.48726 7.06229 8.67744 7.71006 8.6965C8.03673 8.70602 8.44693 9.42057 8.30215 9.75211C8.0256 10.4 7.35555 9.93885 6.81543 9.95981Z" fill="#617E94"/>
</g>
<defs>
<clipPath id="clip0">
<rect width="26" height="16" fill="white"/>
</clipPath>
</defs>
</svg>
