<svg width="25" height="19" viewBox="0 0 25 19" fill="none" xmlns="http://www.w3.org/2000/svg">
<g clip-path="url(#clip0)">
<path d="M24.873 10.4674C23.7595 2.74103 15.4112 -2.25508 7.5315 1.02541C0.709666 3.86719 -1.96896 11.7141 1.54171 18.0852C1.88195 18.7018 2.3552 18.9942 3.08517 18.9912C6.22312 18.9746 9.36262 18.9837 12.5021 18.9837C15.5643 18.9837 18.6265 18.9535 21.6871 19.0018C22.6537 19.0169 23.2104 18.646 23.6141 17.8319C24.7755 15.4921 25.2472 13.0619 24.873 10.4674ZM4.16311 14.9238C3.46407 14.9177 2.77277 14.2303 2.78823 13.5579C2.8037 12.9081 3.46253 12.2614 4.13373 12.2373C4.82349 12.2132 5.5349 12.884 5.54573 13.567C5.55501 14.2454 4.85906 14.9298 4.16311 14.9238ZM6.28034 8.14118C5.57666 8.15324 4.91165 7.50046 4.90855 6.79793C4.90546 6.0954 5.56584 5.43809 6.26952 5.44261C6.93299 5.44714 7.58409 6.08635 7.60264 6.74968C7.6212 7.45674 6.98093 8.13063 6.28034 8.14118ZM12.5779 2.73048C13.13 2.74254 13.7718 3.27471 13.7749 3.72247C13.7811 4.58329 13.1331 5.44563 12.499 5.42151C11.7876 5.39588 11.1164 4.71144 11.1427 4.03755C11.169 3.35914 11.8758 2.7154 12.5779 2.73048ZM16.9809 4.9632C16.9454 5.20743 16.8618 5.44864 16.7799 5.68383C16.0329 7.86831 15.289 10.0528 14.525 12.2312C14.3827 12.6383 14.3441 12.9594 14.6843 13.3107C15.0416 13.6815 15.2086 14.17 15.2658 14.6795C15.3973 15.8374 15.006 16.2716 13.8461 16.2716C13.3821 16.2716 12.9197 16.2716 12.4557 16.2716C11.9407 16.2716 11.4195 16.2203 10.9138 16.2836C10.2287 16.3695 9.96423 16.0786 9.82195 15.4665C9.508 14.1187 10.2828 12.7468 11.6995 12.3745C12.1959 12.2433 12.4031 11.9991 12.5516 11.5513C13.2816 9.3593 14.044 7.17633 14.7957 4.99034C14.8699 4.77626 14.9317 4.55616 15.0369 4.35716C15.3107 3.83855 15.7746 3.63352 16.3267 3.81292C16.8557 3.99081 17.0567 4.43103 16.9809 4.9632ZM17.8362 6.89893C17.9027 6.70898 17.9754 6.52204 18.045 6.3351C18.2089 5.90092 18.263 5.35668 18.9682 5.46523C19.5961 5.5602 20.1266 6.14967 20.1343 6.77079C20.1452 7.47634 19.5049 8.13063 18.7873 8.14721C18.0078 8.1653 17.5872 7.61353 17.8362 6.89893ZM20.8999 14.9057C20.2117 14.9343 19.4941 14.274 19.4724 13.5941C19.4523 12.9232 20.139 12.2327 20.838 12.2222C21.5293 12.2116 22.2299 12.8931 22.2253 13.5715C22.2191 14.2197 21.568 14.877 20.8999 14.9057Z" fill="#617E94"/>
</g>
<defs>
<clipPath id="clip0">
<rect width="25" height="19" fill="white"/>
</clipPath>
</defs>
</svg>
