<svg width="27" height="23" viewBox="0 0 27 23" fill="none" xmlns="http://www.w3.org/2000/svg">
<g clip-path="url(#clip0)">
<path d="M13.5682 0.00954006C16.421 0.00954006 19.2737 0.0223258 22.1249 -4.92714e-05C22.7906 -0.00484393 23.2894 0.226898 23.6355 0.784677C24.5662 2.28701 25.5405 3.76536 26.3948 5.31244C27.5998 7.49721 26.9466 10.056 24.9434 11.0756C23.3081 11.9067 21.7711 11.5375 20.3805 10.4124C20.1155 10.1982 19.9784 10.0703 19.6307 10.358C17.7725 11.9003 15.7444 11.8971 13.8971 10.3692C13.5791 10.1071 13.4201 10.1439 13.1255 10.3884C11.3327 11.8827 9.2298 11.8955 7.45266 10.4028C7.11438 10.1183 6.96005 10.155 6.64359 10.4188C4.79007 11.9658 2.39717 11.8875 0.997289 10.187C-0.0331385 8.93561 -0.301268 7.44127 0.359702 5.94374C1.19527 4.05624 2.42991 2.39249 3.51178 0.644034C3.82824 0.134201 4.34267 -0.00324571 4.93349 0.00154895C7.8112 0.0207276 10.6905 0.00954006 13.5682 0.00954006Z" fill="#617E94"/>
<path d="M13.5203 23C10.3807 23 7.24112 23.0016 4.10151 23C2.81542 22.9984 2.31034 22.4838 2.30878 21.1732C2.30567 18.5937 2.31658 16.0126 2.30099 13.433C2.29787 12.9248 2.37737 12.6771 2.95416 12.8609C3.45301 13.0191 4.00642 13.0351 4.49435 12.8785C5.13661 12.6723 5.12102 13.0111 5.11635 13.4618C5.10543 14.4991 5.13505 15.5379 5.10388 16.5735C5.08985 17.0706 5.2052 17.2672 5.7399 17.2656C10.9295 17.2464 16.119 17.2464 21.3086 17.2656C21.8495 17.2672 21.9555 17.0626 21.9415 16.5703C21.9118 15.5075 21.9415 14.4431 21.9274 13.3787C21.9228 12.968 21.9461 12.7218 22.4793 12.8673C23.0296 13.0159 23.6142 13.0047 24.1722 12.8433C24.5729 12.7266 24.7428 12.8241 24.7412 13.2812C24.7288 16.0477 24.7506 18.8143 24.7256 21.5808C24.7178 22.4838 24.0912 23 23.0982 23.0016C19.904 23.0032 16.7114 23 13.5203 23Z" fill="#617E94"/>
</g>
<defs>
<clipPath id="clip0">
<rect width="27" height="23" fill="white"/>
</clipPath>
</defs>
</svg>
